<svg width="208" height="308" viewBox="0 0 208 308" fill="none" xmlns="http://www.w3.org/2000/svg">
<path d="M44.9959 130.397C47.0925 131.969 49.3639 131.052 50.2375 130.397C58.5339 121.72 69.833 109.971 81.1896 98.2796C102.42 76.4225 123.851 54.7631 126.241 53.7387C130.828 51.7731 138.035 49.1523 145.242 55.7042C151.008 60.9458 148.955 70.1186 147.208 74.0498L25.9963 196.572C17.9156 204.216 4.10824 223.961 1.09887 240.47C-4.15387 269.286 10.2923 284.356 26.001 296.149C41.7097 307.943 67.2721 307.288 97.4043 307.288C127.536 307.288 152.957 309.768 180.623 292.218C224.125 264.622 201.589 173.64 201.589 173.64C180.623 170.351 173.145 169.446 161.614 173.64C150.082 177.833 126.678 201.595 119.69 207.71L86.2745 240.47C83.2169 242.872 75.6603 246.498 69.8946 241.78C64.1288 237.063 67.0554 229.768 69.2394 226.711L176.037 119.914C184.773 112.925 202.113 92.3953 201.589 66.1874C201.065 39.9795 187.393 22.9444 180.623 17.7028C175.163 12.0244 158.215 0.536704 134.104 0.012546C109.993 -0.511612 90.4241 15.5189 83.6537 23.5996C76.665 31.6804 61.5081 49.9386 56.7906 58.3251C50.8939 68.8083 55.4802 76.6706 55.4802 85.1882C55.4802 93.7058 53.5147 104.844 52.2043 112.051C51.1559 117.817 47.8355 122.753 46.3063 124.5C44.9959 125.81 42.8993 128.824 44.9959 130.397Z" fill="#00A5FC"/>
<path d="M7.39468e-06 251C0.00488106 235 6.50001 224.5 10 218C8.00031 227.167 1.50391 247 19.5039 271C37.5039 295 50.5009 304.5 68.5009 307C59.5946 306.507 59.0161 306.443 50.8646 305.54L50.5009 305.5C40.0175 304.339 28.243 300.242 16.5009 288.5C3.00092 275 -0.00456167 266 7.39468e-06 251Z" fill="#0786C9"/>
<path d="M91.5084 87.7962L84.9564 94.3482L69.8871 97.6242C64.8635 96.5322 55.4716 90.6791 55.4716 86.4859C55.4716 81.2443 54.8164 78.6234 54.8164 78.6234C56.1268 74.6923 58.4828 73.1104 61.3684 83.2099C62.6788 87.7962 65.2996 83.2099 66.61 78.6234C67.9204 74.037 71.1972 71.4163 76.4379 69.4507C81.6786 67.4851 82.9899 72.0715 82.3347 76.0027C81.6795 79.9338 77.7483 78.6234 74.4723 78.6234C71.1963 78.6234 73.8162 86.4858 75.7827 87.7962C81.0892 91.3322 87.7956 88.6698 91.5084 87.7962Z" fill="#333333"/>
<path d="M44.9949 130.397C47.0916 131.97 49.3629 131.052 50.2365 130.397C58.5329 121.72 76.2197 103.42 87.5763 91.728C87.5763 91.728 72.8305 95.6529 65.2996 93.0384C57.7686 90.4238 55.4793 85.1885 55.4793 85.1885C55.4793 93.706 53.5137 104.844 52.2033 112.052C51.155 117.817 47.8345 122.753 46.3053 124.5C44.9949 125.811 42.8983 128.825 44.9949 130.397Z" fill="#FFC500"/>
<ellipse rx="3.93118" ry="3.27599" transform="matrix(-1 0 0 1 77.0923 74.0372)" fill="black"/>
<circle r="1.31039" transform="matrix(-1 0 0 1 78.4044 72.0716)" fill="white"/>
<path d="M64.6441 96.9694C65.1682 98.0178 62.6785 101.774 61.3681 103.521C61.1497 103.74 60.7129 104.046 60.7129 103.521C60.7129 102.866 62.0233 97.6246 62.6785 96.9694C63.3337 96.3142 63.9889 95.6591 64.6441 96.9694Z" fill="#333333"/>
<path d="M148.533 45.1301C140.626 43.9353 129.55 50.6833 125 54.5C127 53.5 134.752 48.6149 143.826 55.0867C151.086 60.2641 149.24 70.0195 147 74.5C147.784 73.5043 149.38 70.9178 152.769 66.5369C157.005 61.0607 158.417 46.6236 148.533 45.1301Z" fill="#0786C9"/>
<path d="M105.617 47.7566C101.523 44.2665 99.5039 42.2568 85.0039 43.2566C90.5039 43.2566 96.9247 45.0644 103.365 51.863C108.517 57.3019 107.207 67.5499 105.617 72.2567C105.617 72.2567 108.604 68.7568 109.504 64.2566C110.404 59.7564 109.711 51.2467 105.617 47.7566Z" fill="#0786C9"/>
<path d="M140.595 217.331C137.971 213.617 130.441 215.783 127.004 217.331C131.222 215.164 140.314 211.853 142.939 215.938C145.563 220.023 140.908 226.615 138.252 229.4C142.783 227.853 152.031 226.429 152.781 233.114C153.531 239.799 148.407 243.946 145.751 245.184C148.875 245.184 155.499 246.484 156.999 251.683C158.391 256.51 152.352 260.377 148.48 262.02C151.33 261.058 155.984 261.099 156.999 267.467C157.876 272.971 155.199 275.82 152.793 277.028C155.525 276.432 159.264 277.028 160.748 282.323C162.623 289.008 153.718 292.226 149.032 293C153.562 291.453 161.78 287.151 158.405 282.323C155.031 277.495 148.563 278.454 145.751 279.537C149.5 277.99 156.718 273.502 155.593 267.932C154.468 262.361 146.688 262.516 142.939 263.289C147.001 261.897 155.124 257.811 155.124 252.612C155.124 247.413 147.001 246.113 142.939 246.113C146.688 243.792 153.343 237.942 149.969 233.114C146.595 228.286 139.189 229.555 135.909 230.793C138.565 227.853 143.22 221.044 140.595 217.331Z" fill="#0786C9"/>
<path d="M121.504 235.587C118.704 231.587 110.671 233.921 107.004 235.587C111.504 233.254 121.204 229.687 124.004 234.087C126.804 238.487 121.837 245.587 119.004 248.587C123.837 246.92 133.704 245.387 134.504 252.587C135.304 259.787 129.837 264.254 127.004 265.587C130.337 265.587 137.404 266.987 139.004 272.587C140.489 277.786 134.046 281.95 129.915 283.72C132.956 282.684 137.921 282.728 139.004 289.587C140.204 297.187 129.671 302.087 127.004 302.587C131.004 300.92 138.704 296.087 137.504 290.087C136.304 284.087 128.004 284.254 124.004 285.087C128.337 283.587 137.004 279.187 137.004 273.587C137.004 267.987 128.337 266.587 124.004 266.587C128.004 264.087 135.104 257.787 131.504 252.587C127.904 247.387 120.004 248.754 116.504 250.087C119.337 246.92 124.304 239.587 121.504 235.587Z" fill="#0786C9"/>
<path d="M158.504 203.587C155.704 199.587 147.671 201.921 144.004 203.587C148.504 201.254 158.204 197.687 161.004 202.087C163.804 206.487 158.837 213.587 156.004 216.587C160.837 214.92 170.704 213.387 171.504 220.587C172.304 227.787 166.837 232.254 164.004 233.587C167.337 233.587 174.404 234.987 176.004 240.587C177.489 245.786 171.046 249.95 166.915 251.72C169.956 250.684 174.921 250.728 176.004 257.587C176.94 263.515 174.084 266.583 171.516 267.884C174.432 267.242 178.42 267.885 180.004 273.587C182.004 280.787 172.504 284.254 167.504 285.087C172.337 283.42 181.104 278.787 177.504 273.587C173.904 268.387 167.004 269.42 164.004 270.587C168.004 268.92 175.704 264.087 174.504 258.087C173.304 252.087 165.004 252.254 161.004 253.087C165.337 251.587 174.004 247.187 174.004 241.587C174.004 235.987 165.337 234.587 161.004 234.587C165.004 232.087 172.104 225.787 168.504 220.587C164.904 215.387 157.004 216.754 153.504 218.087C156.337 214.92 161.304 207.587 158.504 203.587Z" fill="#0786C9"/>
<path d="M176.796 188.162C174.326 184.636 167.239 186.693 164.004 188.162C167.974 186.105 176.531 182.961 179.002 186.84C181.472 190.718 177.09 196.976 174.59 199.621C178.854 198.152 187.559 196.8 188.265 203.146C188.97 209.493 184.148 213.43 181.648 214.605C184.589 214.605 190.823 215.839 192.235 220.775C193.545 225.358 187.861 229.028 184.216 230.589C186.899 229.675 191.279 229.715 192.235 235.76C193.06 240.985 190.541 243.69 188.276 244.836C190.848 244.271 194.366 244.837 195.764 249.863C197.528 256.21 189.147 259.265 184.736 260C189 258.531 196.734 254.447 193.558 249.863C190.382 245.28 184.295 246.191 181.648 247.219C185.177 245.75 191.97 241.49 190.911 236.201C189.853 230.912 182.53 231.059 179.002 231.794C182.824 230.471 190.47 226.593 190.47 221.657C190.47 216.721 182.824 215.487 179.002 215.487C182.53 213.283 188.794 207.73 185.618 203.146C182.442 198.563 175.473 199.768 172.385 200.943C174.885 198.152 179.266 191.688 176.796 188.162Z" fill="#0786C9"/>
<path d="M76.8378 61.5727C83.7316 59.7803 88.7871 52.5533 90.4531 49.3361C84.8232 50.0255 71.5295 51.3353 63.3948 49.6808C55.2601 48.0263 53.9158 43.5913 54.2605 41.5806C52.5945 43.7636 49.0556 48.7157 48.2284 51.0596C47.1943 53.9895 48.2284 58.8152 53.3988 61.5727C58.5691 64.3302 68.2205 63.8132 76.8378 61.5727Z" fill="black"/>
<path d="M104.068 43.3039V37.7888C102.23 37.9612 98.1052 38.3059 96.3128 38.3059C94.0723 38.3059 79.5952 39.6846 75.1142 40.0293C71.5294 40.3051 60.7521 37.1569 55.8115 35.5483C55.2945 36.2952 54.1914 38.5472 53.9157 41.5804C53.571 45.3721 55.8115 47.7849 62.1883 49.6807C68.5651 51.5765 83.9039 50.7148 89.936 49.6807C95.9681 48.6466 102.345 45.5444 103.207 44.855C103.896 44.3035 104.068 43.5911 104.068 43.3039Z" fill="#333333"/>
<path d="M98.2082 34.6868C105.24 36.0656 111.823 35.4911 114.236 35.0315C114.236 37.6167 110.962 38.9954 105.102 38.4784C99.2422 37.9614 80.4565 40.3742 72.8733 40.2019C65.2901 40.0295 56.3281 36.2379 54.777 35.0315C53.2259 33.8251 45.9873 22.2779 47.1938 20.8991C48.4002 19.5204 50.4683 20.7268 60.6367 22.2779C70.8052 23.829 89.4185 32.9633 98.2082 34.6868Z" fill="black"/>
<path d="M114.236 35.3761C114.408 34.2846 112.857 31.3432 105.274 28.31C97.6904 25.2767 77.5261 22.7949 68.3919 21.9332C64.7152 20.9565 56.4656 18.8654 52.8808 18.3139C48.3998 17.6245 48.2274 18.1416 47.5381 19.1756C47.0104 19.9672 46.9665 21.2426 47.0141 21.8545C47.0122 21.8815 47.0147 21.9078 47.021 21.9332C47.0185 21.9084 47.0162 21.8821 47.0141 21.8545C47.0461 21.3915 48.3593 20.7227 53.5702 21.2438C60.464 21.9332 73.3899 25.3801 84.4201 30.3781C95.4502 35.3761 102.861 35.8932 105.963 35.8932C108.445 35.8932 112.512 35.5485 114.236 35.3761Z" fill="#333333"/>
<path d="M66.6685 45.0274C80.9732 45.8892 89.0735 43.1317 96.4844 41.9252V43.9934C88.2118 47.0956 75.7684 48.0263 68.0473 47.6126C60.3262 47.199 54.432 43.0168 53.9149 41.2359C54.0298 39.4549 54.6388 36.3412 54.7767 38.1336C54.949 40.3741 62.0152 44.7471 66.6685 45.0274Z" fill="#FFC500"/>
<circle r="1.55111" transform="matrix(-1 0 0 1 96.484 42.787)" fill="#FFC500"/>
</svg>
