<svg width="218" height="308" viewBox="0 0 218 308" fill="none" xmlns="http://www.w3.org/2000/svg">
<path d="M54.9959 130.397C57.0925 131.969 59.3639 131.052 60.2375 130.397C68.5339 121.72 79.833 109.971 91.1896 98.2796C112.42 76.4225 133.851 54.7631 136.241 53.7387C140.828 51.7731 148.035 49.1523 155.242 55.7042C161.008 60.9458 158.955 70.1186 157.208 74.0498L35.9963 196.572C27.9156 204.216 14.1082 223.961 11.0989 240.47C5.84613 269.286 20.2923 284.356 36.001 296.149C51.7097 307.943 77.2721 307.288 107.404 307.288C137.536 307.288 162.957 309.768 190.623 292.218C234.125 264.622 211.589 173.64 211.589 173.64C190.623 170.351 183.145 169.446 171.614 173.64C160.082 177.833 136.678 201.595 129.69 207.71L96.2745 240.47C93.2169 242.872 85.6603 246.498 79.8946 241.78C74.1288 237.063 77.0554 229.768 79.2394 226.711L186.037 119.914C194.773 112.925 212.113 92.3953 211.589 66.1874C211.065 39.9795 197.393 22.9444 190.623 17.7028C185.163 12.0244 168.215 0.536704 144.104 0.012546C119.993 -0.511612 100.424 15.5189 93.6537 23.5996C86.665 31.6804 71.5081 49.9386 66.7906 58.3251C60.8939 68.8083 65.4802 76.6706 65.4802 85.1882C65.4802 93.7058 63.5147 104.844 62.2043 112.051C61.1559 117.817 57.8355 122.753 56.3063 124.5C54.9959 125.81 52.8993 128.824 54.9959 130.397Z" fill="#00A5FC"/>
<path d="M10 251C10.0049 235 16.5 224.5 20 218C18.0003 227.167 11.5039 247 29.5039 271C47.5039 295 60.5009 304.5 78.5009 307C69.5946 306.507 69.0161 306.443 60.8646 305.54L60.5009 305.5C50.0175 304.339 38.243 300.242 26.5009 288.5C13.0009 275 9.99544 266 10 251Z" fill="#0786C9"/>
<path d="M101.508 87.7962L94.9564 94.3482L79.8871 97.6242C74.8635 96.5322 65.4716 90.6791 65.4716 86.4859C65.4716 81.2443 64.8164 78.6234 64.8164 78.6234C66.1268 74.6923 68.4828 73.1104 71.3684 83.2099C72.6788 87.7962 75.2996 83.2099 76.61 78.6234C77.9204 74.037 81.1972 71.4163 86.4379 69.4507C91.6786 67.4851 92.9899 72.0715 92.3347 76.0027C91.6795 79.9338 87.7483 78.6234 84.4723 78.6234C81.1963 78.6234 83.8162 86.4858 85.7827 87.7962C91.0892 91.3322 97.7956 88.6698 101.508 87.7962Z" fill="#333333"/>
<path d="M54.9949 130.397C57.0916 131.97 59.3629 131.052 60.2365 130.397C68.5329 121.72 86.2197 103.42 97.5763 91.728C97.5763 91.728 82.8305 95.6529 75.2996 93.0384C67.7686 90.4238 65.4793 85.1885 65.4793 85.1885C65.4793 93.706 63.5137 104.844 62.2033 112.052C61.155 117.817 57.8345 122.753 56.3053 124.5C54.9949 125.811 52.8983 128.825 54.9949 130.397Z" fill="#FFC500"/>
<ellipse rx="3.93118" ry="3.27599" transform="matrix(-1 0 0 1 87.0923 74.0372)" fill="black"/>
<circle r="1.31039" transform="matrix(-1 0 0 1 88.4044 72.0716)" fill="white"/>
<path d="M74.6441 96.9694C75.1682 98.0178 72.6785 101.774 71.3681 103.521C71.1497 103.74 70.7129 104.046 70.7129 103.521C70.7129 102.866 72.0233 97.6246 72.6785 96.9694C73.3337 96.3142 73.9889 95.6591 74.6441 96.9694Z" fill="#333333"/>
<path d="M158.533 45.1301C150.626 43.9353 139.55 50.6833 135 54.5C137 53.5 144.752 48.6149 153.826 55.0867C161.086 60.2641 159.24 70.0195 157 74.5C157.784 73.5043 159.38 70.9178 162.769 66.5369C167.005 61.0607 168.417 46.6236 158.533 45.1301Z" fill="#0786C9"/>
<path d="M115.617 47.7566C111.523 44.2665 109.504 42.2568 95.0039 43.2566C100.504 43.2566 106.925 45.0644 113.365 51.863C118.517 57.3019 117.207 67.5499 115.617 72.2567C115.617 72.2567 118.604 68.7568 119.504 64.2566C120.404 59.7564 119.711 51.2467 115.617 47.7566Z" fill="#0786C9"/>
<path d="M150.595 217.331C147.971 213.617 140.441 215.783 137.004 217.331C141.222 215.164 150.314 211.853 152.939 215.938C155.563 220.023 150.908 226.615 148.252 229.4C152.783 227.853 162.031 226.429 162.781 233.114C163.531 239.799 158.407 243.946 155.751 245.184C158.875 245.184 165.499 246.484 166.999 251.683C168.391 256.51 162.352 260.377 158.48 262.02C161.33 261.058 165.984 261.099 166.999 267.467C167.876 272.971 165.199 275.82 162.793 277.028C165.525 276.432 169.264 277.028 170.748 282.323C172.623 289.008 163.718 292.226 159.032 293C163.562 291.453 171.78 287.151 168.405 282.323C165.031 277.495 158.563 278.454 155.751 279.537C159.5 277.99 166.718 273.502 165.593 267.932C164.468 262.361 156.688 262.516 152.939 263.289C157.001 261.897 165.124 257.811 165.124 252.612C165.124 247.413 157.001 246.113 152.939 246.113C156.688 243.792 163.343 237.942 159.969 233.114C156.595 228.286 149.189 229.555 145.909 230.793C148.565 227.853 153.22 221.044 150.595 217.331Z" fill="#0786C9"/>
<path d="M131.504 235.587C128.704 231.587 120.671 233.921 117.004 235.587C121.504 233.254 131.204 229.687 134.004 234.087C136.804 238.487 131.837 245.587 129.004 248.587C133.837 246.92 143.704 245.387 144.504 252.587C145.304 259.787 139.837 264.254 137.004 265.587C140.337 265.587 147.404 266.987 149.004 272.587C150.489 277.786 144.046 281.95 139.915 283.72C142.956 282.684 147.921 282.728 149.004 289.587C150.204 297.187 139.671 302.087 137.004 302.587C141.004 300.92 148.704 296.087 147.504 290.087C146.304 284.087 138.004 284.254 134.004 285.087C138.337 283.587 147.004 279.187 147.004 273.587C147.004 267.987 138.337 266.587 134.004 266.587C138.004 264.087 145.104 257.787 141.504 252.587C137.904 247.387 130.004 248.754 126.504 250.087C129.337 246.92 134.304 239.587 131.504 235.587Z" fill="#0786C9"/>
<path d="M168.504 203.587C165.704 199.587 157.671 201.921 154.004 203.587C158.504 201.254 168.204 197.687 171.004 202.087C173.804 206.487 168.837 213.587 166.004 216.587C170.837 214.92 180.704 213.387 181.504 220.587C182.304 227.787 176.837 232.254 174.004 233.587C177.337 233.587 184.404 234.987 186.004 240.587C187.489 245.786 181.046 249.95 176.915 251.72C179.956 250.684 184.921 250.728 186.004 257.587C186.94 263.515 184.084 266.583 181.516 267.884C184.432 267.242 188.42 267.885 190.004 273.587C192.004 280.787 182.504 284.254 177.504 285.087C182.337 283.42 191.104 278.787 187.504 273.587C183.904 268.387 177.004 269.42 174.004 270.587C178.004 268.92 185.704 264.087 184.504 258.087C183.304 252.087 175.004 252.254 171.004 253.087C175.337 251.587 184.004 247.187 184.004 241.587C184.004 235.987 175.337 234.587 171.004 234.587C175.004 232.087 182.104 225.787 178.504 220.587C174.904 215.387 167.004 216.754 163.504 218.087C166.337 214.92 171.304 207.587 168.504 203.587Z" fill="#0786C9"/>
<path d="M186.796 188.162C184.326 184.636 177.239 186.693 174.004 188.162C177.974 186.105 186.531 182.961 189.002 186.84C191.472 190.718 187.09 196.976 184.59 199.621C188.854 198.152 197.559 196.8 198.265 203.146C198.97 209.493 194.148 213.43 191.648 214.605C194.589 214.605 200.823 215.839 202.235 220.775C203.545 225.358 197.861 229.028 194.216 230.589C196.899 229.675 201.279 229.715 202.235 235.76C203.06 240.985 200.541 243.69 198.276 244.836C200.848 244.271 204.366 244.837 205.764 249.863C207.528 256.21 199.147 259.265 194.736 260C199 258.531 206.734 254.447 203.558 249.863C200.382 245.28 194.295 246.191 191.648 247.219C195.177 245.75 201.97 241.49 200.911 236.201C199.853 230.912 192.53 231.059 189.002 231.794C192.824 230.471 200.47 226.593 200.47 221.657C200.47 216.721 192.824 215.487 189.002 215.487C192.53 213.283 198.794 207.73 195.618 203.146C192.442 198.563 185.473 199.768 182.385 200.943C184.885 198.152 189.266 191.688 186.796 188.162Z" fill="#0786C9"/>
<path d="M17.7363 72.6195C15.7467 75.6945 12.3418 77.0194 10.1313 75.5787C7.92071 74.138 7.74156 70.4773 9.73113 67.4023C11.7207 64.3273 15.1256 63.0025 17.3361 64.4432C19.5467 65.8838 19.7258 69.5445 17.7363 72.6195Z" fill="black"/>
<path d="M9.6302 42.6284L11.6188 43.6841L18.666 66.5434L17.1471 67.0117L9.6302 42.6284Z" fill="black"/>
<path d="M18.0663 42.8176C14.84 44.1617 11.0338 43.4197 9.53393 42.8807L11.0587 46.7146C14.7389 44.8555 21.2926 41.4734 18.0663 42.8176Z" fill="black"/>
<path d="M41.192 43.8618C38.0559 45.7535 34.4148 45.4518 33.0594 43.1879C31.7041 40.924 33.1477 37.5552 36.2839 35.6635C39.42 33.7718 43.0611 34.0735 44.4164 36.3374C45.7718 38.6013 44.3281 41.9701 41.192 43.8618Z" fill="black"/>
<path d="M47.0528 13.3523L48.3774 15.1729L44.6911 38.8081L43.1207 38.5632L47.0528 13.3523Z" fill="black"/>
<path d="M54.5522 17.2203C51.0632 17.0141 47.9674 14.6788 46.8556 13.5369L46.5455 17.6513C50.6682 17.5935 58.0413 17.4264 54.5522 17.2203Z" fill="black"/>
<path d="M40.9275 108.866C38.3591 111.477 34.7571 112.089 32.8822 110.232C31.0073 108.376 31.5695 104.754 34.1378 102.143C36.7062 99.5319 40.3082 98.9203 42.1831 100.777C44.058 102.633 43.4959 106.255 40.9275 108.866Z" fill="black"/>
<path d="M39.0309 77.8568L40.766 79.2915L43.0625 103.102L41.4804 103.255L39.0309 77.8568Z" fill="black"/>
<path d="M47.2558 79.742C43.8249 80.4084 40.2462 78.9147 38.8858 78.0845L39.6068 82.1471C43.586 81.0677 50.6868 79.0755 47.2558 79.742Z" fill="black"/>
</svg>
